<?xml version="1.0" encoding="utf-8"?>
<!-- Generator: Adobe Illustrator 15.0.0, SVG Export Plug-In  -->
<!DOCTYPE svg PUBLIC "-//W3C//DTD SVG 1.1//EN" "http://www.w3.org/Graphics/SVG/1.1/DTD/svg11.dtd" [
	<!ENTITY ns_flows "http://ns.adobe.com/Flows/1.0/">
]>
<svg version="1.1"
	 xmlns="http://www.w3.org/2000/svg" xmlns:xlink="http://www.w3.org/1999/xlink" xmlns:a="http://ns.adobe.com/AdobeSVGViewerExtensions/3.0/"
	 x="0px" y="0px" width="499px" height="281px" viewBox="-53.153 -69.154 499 281"
	 overflow="visible" enable-background="new -53.153 -69.154 499 281" xml:space="preserve">
<defs>
</defs>
<g>
	<g>
		<path fill="#283C67" d="M55.514,57.832c0.604,0,1.291,0.039,2.068,0.113c0.775,0.074,1.539,0.176,2.291,0.299
			c0.752,0.129,1.439,0.252,2.066,0.377c0.627,0.127,1.09,0.238,1.391,0.338l-1.203,6.088c-0.553-0.203-1.465-0.441-2.742-0.717
			s-2.918-0.412-4.922-0.412c-1.301,0-2.592,0.137-3.869,0.412s-2.117,0.465-2.516,0.564v32.834h-6.99V60.312
			c1.654-0.604,3.709-1.166,6.164-1.691C49.703,58.096,52.459,57.832,55.514,57.832z"/>
		<path fill="#283C67" d="M67.91,78.268c0-3.455,0.5-6.471,1.504-9.053c1.002-2.58,2.328-4.721,3.98-6.424
			c1.654-1.701,3.557-2.98,5.713-3.832c2.152-0.852,4.357-1.275,6.611-1.275c5.26,0,9.289,1.639,12.096,4.92
			c2.805,3.281,4.207,8.277,4.207,14.99c0,0.299,0,0.688,0,1.162c0,0.477-0.025,0.916-0.074,1.316H75.199
			c0.301,4.057,1.477,7.137,3.531,9.24c2.053,2.105,5.26,3.156,9.617,3.156c2.455,0,4.52-0.211,6.199-0.639
			c1.678-0.424,2.941-0.838,3.793-1.242l0.977,5.861c-0.85,0.453-2.342,0.928-4.469,1.428c-2.131,0.502-4.545,0.752-7.252,0.752
			c-3.406,0-6.348-0.514-8.828-1.537c-2.479-1.027-4.52-2.443-6.123-4.246c-1.604-1.805-2.793-3.947-3.568-6.426
			C68.299,83.941,67.91,81.225,67.91,78.268z M94.732,74.438c0.051-3.158-0.736-5.748-2.365-7.777
			c-1.629-2.027-3.869-3.043-6.725-3.043c-1.602,0-3.018,0.314-4.244,0.938c-1.229,0.629-2.268,1.441-3.117,2.445
			c-0.854,1.002-1.518,2.154-1.992,3.453c-0.477,1.305-0.789,2.633-0.939,3.984H94.732z"/>
	</g>
</g>
<g>
	<g>
		<path fill="#283C67" d="M203.909,57.832c0.602,0,1.287,0.039,2.066,0.113c0.775,0.074,1.539,0.176,2.291,0.299
			c0.752,0.129,1.439,0.252,2.066,0.377c0.627,0.127,1.09,0.238,1.391,0.34l-1.203,6.086c-0.551-0.201-1.465-0.438-2.742-0.717
			c-1.277-0.271-2.918-0.412-4.922-0.412c-1.305,0-2.594,0.141-3.871,0.412c-1.277,0.279-2.115,0.465-2.516,0.564v32.834h-6.987
			V60.312c1.652-0.604,3.706-1.166,6.161-1.691S200.853,57.832,203.909,57.832z"/>
		<path fill="#283C67" d="M231.104,57.684c2.805,0,5.172,0.363,7.104,1.088c1.924,0.727,3.48,1.754,4.656,3.08
			c1.178,1.33,2.018,2.906,2.518,4.732c0.5,1.832,0.75,3.846,0.75,6.049v24.418c-0.598,0.102-1.438,0.238-2.516,0.416
			c-1.078,0.176-2.291,0.336-3.645,0.486c-1.354,0.152-2.818,0.289-4.396,0.414c-1.576,0.125-3.145,0.188-4.695,0.188
			c-2.203,0-4.232-0.225-6.086-0.678c-1.852-0.449-3.455-1.162-4.807-2.139c-1.354-0.979-2.404-2.268-3.156-3.869
			c-0.752-1.604-1.129-3.531-1.129-5.785c0-2.154,0.439-4.01,1.316-5.561c0.877-1.553,2.064-2.805,3.57-3.756
			c1.5-0.953,3.254-1.656,5.256-2.105c2.006-0.449,4.107-0.676,6.314-0.676c0.699,0,1.428,0.037,2.176,0.111
			c0.754,0.076,1.469,0.178,2.143,0.303c0.676,0.123,1.264,0.238,1.768,0.338c0.496,0.102,0.85,0.176,1.051,0.225V73.01
			c0-1.152-0.127-2.293-0.375-3.42c-0.254-1.125-0.703-2.129-1.354-3.006c-0.652-0.873-1.539-1.576-2.666-2.104
			c-1.127-0.523-2.594-0.787-4.395-0.787c-2.307,0-4.322,0.164-6.049,0.488c-1.729,0.326-3.02,0.664-3.869,1.016l-0.826-5.787
			c0.9-0.4,2.402-0.789,4.508-1.166C226.372,57.871,228.649,57.684,231.104,57.684z M231.706,92.695
			c1.656,0,3.119-0.039,4.396-0.115c1.275-0.074,2.34-0.211,3.193-0.41V80.523c-0.5-0.25-1.314-0.463-2.441-0.641
			c-1.129-0.172-2.492-0.262-4.094-0.262c-1.055,0-2.17,0.076-3.346,0.227s-2.254,0.463-3.23,0.938
			c-0.977,0.477-1.791,1.129-2.441,1.953c-0.652,0.828-0.979,1.916-0.979,3.27c0,2.506,0.803,4.244,2.406,5.223
			C226.772,92.207,228.952,92.695,231.706,92.695z"/>
		<path fill="#283C67" d="M257.702,59.785c1.602-0.398,3.721-0.824,6.35-1.275c2.627-0.453,5.674-0.678,9.129-0.678
			c2.504,0,4.609,0.338,6.312,1.014c1.701,0.678,3.129,1.666,4.281,2.969c0.35-0.248,0.9-0.602,1.652-1.051
			c0.752-0.451,1.68-0.891,2.781-1.316c1.102-0.424,2.328-0.801,3.682-1.127c1.354-0.324,2.805-0.488,4.355-0.488
			c3.008,0,5.461,0.439,7.363,1.314c1.904,0.879,3.395,2.117,4.473,3.719c1.076,1.604,1.801,3.508,2.178,5.711
			c0.375,2.203,0.564,4.611,0.564,7.213v21.939h-6.986V77.291c0-2.303-0.115-4.281-0.34-5.934c-0.225-1.654-0.652-3.031-1.275-4.133
			c-0.629-1.1-1.479-1.916-2.557-2.441c-1.078-0.527-2.469-0.789-4.172-0.789c-2.352,0-4.293,0.312-5.82,0.938
			c-1.527,0.629-2.566,1.193-3.117,1.693c0.398,1.303,0.699,2.727,0.9,4.281c0.197,1.553,0.303,3.18,0.303,4.883v21.939h-6.99
			V77.291c0-2.303-0.125-4.281-0.375-5.934c-0.25-1.654-0.689-3.031-1.314-4.133c-0.627-1.1-1.479-1.916-2.555-2.441
			c-1.078-0.527-2.443-0.789-4.096-0.789c-0.701,0-1.453,0.025-2.252,0.074c-0.803,0.049-1.566,0.113-2.295,0.188
			c-0.725,0.074-1.387,0.162-1.988,0.264c-0.602,0.1-1.004,0.174-1.203,0.225v32.984h-6.988V59.785z"/>
		<path fill="#283C67" d="M320.214,78.268c0-3.455,0.5-6.471,1.504-9.053c1-2.58,2.328-4.721,3.98-6.424
			c1.652-1.701,3.557-2.98,5.713-3.83c2.148-0.854,4.355-1.277,6.609-1.277c5.26,0,9.291,1.641,12.098,4.92
			c2.805,3.281,4.209,8.277,4.209,14.99c0,0.299,0,0.688,0,1.162c0,0.479-0.027,0.916-0.078,1.316h-26.748
			c0.303,4.057,1.479,7.137,3.533,9.24c2.053,2.105,5.26,3.156,9.617,3.156c2.453,0,4.52-0.211,6.199-0.639
			c1.676-0.424,2.941-0.838,3.793-1.238l0.977,5.857c-0.85,0.453-2.342,0.932-4.471,1.428c-2.129,0.502-4.545,0.752-7.25,0.752
			c-3.408,0-6.35-0.514-8.828-1.537c-2.479-1.027-4.521-2.443-6.123-4.246c-1.605-1.805-2.793-3.947-3.57-6.426
			C320.603,83.941,320.214,81.225,320.214,78.268z M347.036,74.438c0.049-3.154-0.736-5.748-2.365-7.775
			c-1.629-2.029-3.869-3.045-6.725-3.045c-1.605,0-3.018,0.314-4.246,0.941c-1.229,0.625-2.268,1.441-3.115,2.441
			c-0.854,1.002-1.518,2.154-1.992,3.453c-0.477,1.305-0.789,2.633-0.939,3.984H347.036z"/>
	</g>
</g>
<path fill="#283C67" d="M180.418,22.494c-4.514,2.768-8.727,5.766-12.496,8.891c-3.057,2.564-5.783,5.057-9.146,8.885
	c-6.119,6.969-9.461,13.336-11.182,17.432l-9.492,22.914l-0.053,0.109c-3.699,7.668-7.102,14.496-11.314,20.389
	c-5.754,8.113-12.756,13.68-19.805,17.561l4.832,7.365c7.227-4.066,13.645-9.238,18.824-15.377c3.158-3.74,5.984-7.664,8.643-11.988
	c2.779-4.525,5.395-9.531,7.988-15.305l1.152-2.566h19.225v-1.967v-2.789v-2.584h-16.199l1.268-3.314
	c0.09-0.24,0.217-0.574,0.369-0.986c1.275-3.43,4.262-11.463,7.27-16.246c6.158-9.807,12.506-15.994,23.379-22.812
	c0.254-0.164,6.215-3.42,11.989-6.334l-4.642-7.082C187.332,18.494,183.787,20.43,180.418,22.494z"/>
<linearGradient id="SVGID_1_" gradientUnits="userSpaceOnUse" x1="20.7979" y1="164.3843" x2="362.1486" y2="46.6458">
	<stop  offset="0" style="stop-color:#6993CD"/>
	<stop  offset="0.1656" style="stop-color:#95B6DF"/>
	<stop  offset="0.3497" style="stop-color:#6EC3B7"/>
	<stop  offset="0.6012" style="stop-color:#8FC73E"/>
	<stop  offset="1" style="stop-color:#B5D334"/>
</linearGradient>
<path fill="url(#SVGID_1_)" d="M268.808,157.674c-33.328,0-64.717-7.988-88.39-22.494c-13.697-8.396-23.857-18.281-30.24-29.422
	c0.053-0.082,0.104-0.17,0.158-0.256c1.609-2.613,3.15-5.346,4.66-8.256c5.238,11.59,15.375,22.189,29.691,30.963
	c22.407,13.73,52.282,21.293,84.12,21.293c31.84,0,61.715-7.562,84.119-21.293c21.783-13.35,33.779-30.883,33.779-49.373
	s-11.996-36.025-33.779-49.371c-22.404-13.73-52.277-21.293-84.119-21.293c-11.201,0-30.547,0.098-60.213,9.963
	c-0.031-0.053-3.957-7.264-3.957-7.264C227.458,2.469,253.999,0,268.808,0c33.326,0,64.719,7.988,88.391,22.494
	c24.301,14.891,37.682,34.9,37.682,56.342c0,21.443-13.381,41.453-37.682,56.344C333.526,149.686,302.136,157.674,268.808,157.674z"
	/>
<linearGradient id="SVGID_2_" gradientUnits="userSpaceOnUse" x1="-0.3066" y1="103.2075" x2="341.0419" y2="-14.5302">
	<stop  offset="0" style="stop-color:#6993CD"/>
	<stop  offset="0.1656" style="stop-color:#95B6DF"/>
	<stop  offset="0.3497" style="stop-color:#6EC3B7"/>
	<stop  offset="0.6012" style="stop-color:#8FC73E"/>
	<stop  offset="1" style="stop-color:#B5D334"/>
</linearGradient>
<path fill="url(#SVGID_2_)" d="M74.094,20.758l-0.389-0.014c-0.898-0.025-1.799-0.045-2.734-0.045
	c-31.018,0-57.426,16.33-67.008,38.99c-0.133,0.309-0.26,0.617-0.385,0.926c-0.16,0.4-0.316,0.799-0.465,1.201
	c-0.275,0.729-0.529,1.461-0.768,2.195c-0.004,0.014-0.008,0.027-0.012,0.039C0.807,68.775,0,73.65,0,78.586
	c0,19.572,12.02,36.889,30.346,47.34c0.186,0.109,0.373,0.219,0.561,0.326c0.24,0.135,0.484,0.27,0.729,0.402
	c8.512,4.742,18.055,7.832,27.754,8.918c3.738,0.498,7.57,0.77,11.48,0.77c0.936,0,1.836-0.02,2.734-0.045l0.389-0.014
	c7.008-0.246,17.334-1.393,25.135-4.551l-3.445-7.592c-2.537,0.961-7.227,2.807-21.301,3.85c-4.449,0.33-10.275-0.338-10.275-0.338
	c-18.945-1.826-35.385-10.273-45.43-22.209c-4.643-5.713-7.785-11.963-9.348-18.088c-0.686-2.893-1.051-5.865-1.051-8.9
	c0-27.34,28.123-49.582,62.693-49.582c1.623,0,3.242,0.021,4.809,0.068l0.223,0.008l0.219,0.025
	c1.424,0.191,2.844,0.396,4.225,0.621c20.086,2.377,37.6,12.344,46.883,26.678c1.391,1.953,2.754,4.062,4.111,6.355l4.117-9.936
	c0.117-0.277,0.238-0.561,0.365-0.854C122.789,32.711,100.938,21.697,74.094,20.758z"/>
</svg>
