<?xml version="1.0" encoding="utf-8"?>
<!-- Generator: Adobe Illustrator 15.0.0, SVG Export Plug-In  -->
<!DOCTYPE svg PUBLIC "-//W3C//DTD SVG 1.1//EN" "http://www.w3.org/Graphics/SVG/1.1/DTD/svg11.dtd" [
	<!ENTITY ns_flows "http://ns.adobe.com/Flows/1.0/">
]>
<svg version="1.1"
	 xmlns="http://www.w3.org/2000/svg" xmlns:xlink="http://www.w3.org/1999/xlink" xmlns:a="http://ns.adobe.com/AdobeSVGViewerExtensions/3.0/"
	 x="0px" y="0px" width="499px" height="281px" viewBox="-52.154 -69.154 499 281"
	 overflow="visible" enable-background="new -52.154 -69.154 499 281" xml:space="preserve">
<defs>
</defs>
<g>
	<g>
		<path fill="#FFFFFF" d="M55.514,57.836c0.602,0,1.29,0.037,2.066,0.111c0.775,0.075,1.541,0.177,2.292,0.3
			c0.751,0.128,1.438,0.251,2.067,0.374c0.625,0.129,1.088,0.24,1.391,0.338l-1.203,6.09c-0.553-0.203-1.467-0.443-2.744-0.716
			c-1.275-0.278-2.918-0.412-4.92-0.412c-1.303,0-2.593,0.134-3.869,0.412c-1.278,0.272-2.118,0.466-2.517,0.562V97.73h-6.989
			v-37.42c1.653-0.598,3.707-1.165,6.163-1.689C49.703,58.098,52.457,57.836,55.514,57.836z"/>
		<path fill="#FFFFFF" d="M67.91,78.27c0-3.455,0.5-6.471,1.502-9.055c1.004-2.577,2.33-4.722,3.982-6.422
			c1.654-1.701,3.557-2.979,5.711-3.834c2.152-0.852,4.359-1.273,6.611-1.273c5.26,0,9.291,1.637,12.096,4.92
			c2.805,3.278,4.209,8.279,4.209,14.99c0,0.299,0,0.684,0,1.16s-0.027,0.914-0.074,1.316H75.199
			c0.299,4.059,1.477,7.139,3.531,9.24c2.053,2.107,5.258,3.156,9.617,3.156c2.453,0,4.52-0.209,6.197-0.637
			c1.68-0.422,2.941-0.84,3.795-1.24l0.977,5.861c-0.852,0.449-2.344,0.924-4.471,1.428c-2.129,0.496-4.545,0.748-7.25,0.748
			c-3.406,0-6.348-0.514-8.828-1.535c-2.48-1.027-4.521-2.443-6.125-4.246c-1.602-1.807-2.791-3.947-3.566-6.428
			C68.298,83.943,67.91,81.227,67.91,78.27z M94.732,74.44c0.051-3.161-0.738-5.749-2.365-7.781
			c-1.629-2.026-3.871-3.043-6.725-3.043c-1.604,0-3.02,0.315-4.246,0.941s-2.266,1.438-3.117,2.444
			c-0.854,1-1.516,2.154-1.992,3.454c-0.475,1.306-0.789,2.632-0.938,3.984H94.732z"/>
	</g>
</g>
<g>
	<g>
		<path fill="#FFFFFF" d="M203.908,57.836c0.602,0,1.287,0.037,2.066,0.111c0.775,0.075,1.539,0.177,2.291,0.3
			c0.752,0.128,1.439,0.251,2.066,0.374c0.627,0.129,1.09,0.24,1.391,0.342l-1.203,6.086c-0.551-0.203-1.465-0.438-2.742-0.716
			c-1.275-0.272-2.918-0.412-4.92-0.412c-1.307,0-2.594,0.14-3.873,0.412c-1.277,0.278-2.115,0.466-2.516,0.562V97.73h-6.988v-37.42
			c1.654-0.598,3.707-1.165,6.162-1.689C198.098,58.098,200.852,57.836,203.908,57.836z"/>
		<path fill="#FFFFFF" d="M231.104,57.686c2.805,0,5.172,0.363,7.104,1.086c1.924,0.727,3.48,1.754,4.656,3.08
			c1.178,1.332,2.018,2.909,2.518,4.732c0.5,1.834,0.75,3.846,0.75,6.049v24.418c-0.598,0.102-1.438,0.24-2.516,0.418
			c-1.078,0.176-2.291,0.336-3.645,0.486s-2.818,0.289-4.396,0.412c-1.576,0.129-3.145,0.188-4.695,0.188
			c-2.203,0-4.232-0.225-6.086-0.674c-1.852-0.449-3.455-1.166-4.807-2.141c-1.354-0.979-2.404-2.268-3.156-3.871
			c-0.75-1.604-1.127-3.529-1.127-5.787c0-2.148,0.438-4.004,1.314-5.557c0.877-1.555,2.064-2.807,3.57-3.759
			c1.5-0.952,3.254-1.652,5.256-2.102c2.006-0.449,4.107-0.679,6.314-0.679c0.699,0,1.428,0.037,2.176,0.111
			c0.754,0.075,1.469,0.178,2.143,0.305c0.676,0.123,1.264,0.236,1.768,0.338c0.496,0.102,0.85,0.176,1.051,0.225v-1.952
			c0-1.155-0.127-2.294-0.375-3.423c-0.254-1.123-0.703-2.129-1.354-3.006c-0.652-0.871-1.539-1.577-2.666-2.102
			c-1.127-0.523-2.594-0.786-4.395-0.786c-2.305,0-4.322,0.161-6.049,0.487c-1.729,0.326-3.02,0.662-3.869,1.016l-0.826-5.787
			c0.9-0.4,2.404-0.791,4.508-1.165C226.371,57.873,228.65,57.686,231.104,57.686z M231.705,92.697c1.656,0,3.119-0.041,4.396-0.117
			c1.275-0.074,2.34-0.209,3.193-0.412V80.525c-0.5-0.25-1.312-0.465-2.441-0.641c-1.129-0.172-2.492-0.262-4.094-0.262
			c-1.055,0-2.17,0.074-3.346,0.225c-1.176,0.148-2.254,0.465-3.23,0.941c-0.975,0.475-1.791,1.127-2.441,1.951
			c-0.652,0.828-0.979,1.914-0.979,3.268c0,2.508,0.803,4.246,2.406,5.225C226.771,92.207,228.951,92.697,231.705,92.697z"/>
		<path fill="#FFFFFF" d="M257.701,59.787c1.602-0.4,3.721-0.824,6.35-1.277c2.627-0.449,5.674-0.674,9.129-0.674
			c2.504,0,4.609,0.336,6.312,1.01c1.701,0.68,3.129,1.668,4.281,2.969c0.35-0.246,0.9-0.6,1.652-1.049
			c0.752-0.455,1.68-0.893,2.781-1.315c1.102-0.428,2.328-0.802,3.682-1.128s2.805-0.486,4.355-0.486
			c3.008,0,5.461,0.438,7.365,1.31c1.902,0.882,3.393,2.118,4.471,3.722c1.076,1.605,1.801,3.508,2.178,5.712
			c0.375,2.204,0.564,4.61,0.564,7.209V97.73h-6.986V77.291c0-2.3-0.115-4.278-0.34-5.932c-0.225-1.657-0.652-3.031-1.275-4.133
			c-0.629-1.102-1.479-1.915-2.557-2.444c-1.078-0.524-2.467-0.786-4.172-0.786c-2.352,0-4.293,0.311-5.82,0.936
			c-1.527,0.631-2.566,1.193-3.117,1.695c0.398,1.3,0.699,2.728,0.9,4.278c0.197,1.556,0.303,3.183,0.303,4.883V97.73h-6.99V77.291
			c0-2.3-0.125-4.278-0.375-5.932c-0.25-1.657-0.689-3.031-1.314-4.133c-0.627-1.102-1.479-1.915-2.555-2.444
			c-1.076-0.524-2.443-0.786-4.096-0.786c-0.701,0-1.453,0.027-2.252,0.074c-0.803,0.049-1.566,0.113-2.295,0.188
			c-0.725,0.075-1.387,0.16-1.988,0.262s-1.004,0.178-1.203,0.225V97.73h-6.988V59.787z"/>
		<path fill="#FFFFFF" d="M320.213,78.27c0-3.455,0.5-6.471,1.504-9.055c1-2.577,2.328-4.722,3.98-6.422
			c1.652-1.701,3.557-2.979,5.713-3.83c2.148-0.855,4.355-1.277,6.609-1.277c5.26,0,9.293,1.642,12.098,4.92
			s4.209,8.279,4.209,14.99c0,0.299,0,0.684,0,1.16c0,0.482-0.027,0.914-0.078,1.316H327.5c0.303,4.059,1.479,7.139,3.533,9.24
			c2.053,2.107,5.26,3.156,9.617,3.156c2.453,0,4.52-0.209,6.199-0.637c1.676-0.422,2.941-0.84,3.793-1.24l0.977,5.861
			c-0.85,0.449-2.342,0.93-4.471,1.428c-2.129,0.496-4.545,0.748-7.25,0.748c-3.408,0-6.35-0.514-8.828-1.535
			c-2.479-1.027-4.521-2.443-6.123-4.246c-1.605-1.807-2.793-3.947-3.57-6.428C320.602,83.943,320.213,81.227,320.213,78.27z
			 M347.037,74.44c0.047-3.155-0.738-5.749-2.367-7.776c-1.629-2.031-3.869-3.048-6.725-3.048c-1.605,0-3.018,0.315-4.246,0.941
			s-2.268,1.444-3.115,2.444c-0.854,1-1.518,2.154-1.992,3.454c-0.477,1.306-0.789,2.632-0.939,3.984H347.037z"/>
	</g>
</g>
<path fill="#FFFFFF" d="M180.416,22.494c-4.514,2.77-8.725,5.768-12.494,8.891c-3.057,2.566-5.785,5.059-9.148,8.888
	c-6.117,6.968-9.461,13.333-11.18,17.429l-9.492,22.916l-0.055,0.107c-3.697,7.668-7.102,14.498-11.312,20.391
	c-5.754,8.113-12.758,13.68-19.807,17.559l4.832,7.369c7.229-4.07,13.646-9.242,18.824-15.381c3.158-3.738,5.984-7.664,8.643-11.984
	c2.781-4.531,5.396-9.535,7.99-15.307l1.152-2.566h19.223v-1.969v-2.785v-2.589h-16.199l1.268-3.311
	c0.092-0.241,0.217-0.577,0.369-0.989c1.275-3.428,4.264-11.461,7.271-16.247c6.158-9.803,12.506-15.99,23.379-22.81
	c0.254-0.165,6.213-3.42,11.988-6.334l-4.641-7.083C187.332,18.496,183.785,20.43,180.416,22.494z"/>
<path fill="#FFFFFF" d="M268.807,157.676c-33.328,0-64.717-7.99-88.391-22.494c-13.695-8.396-23.855-18.285-30.238-29.424
	c0.053-0.08,0.104-0.172,0.156-0.256c1.611-2.611,3.15-5.344,4.662-8.252c5.238,11.588,15.375,22.188,29.691,30.959
	c22.406,13.732,52.281,21.295,84.119,21.295c31.84,0,61.715-7.562,84.121-21.295c21.781-13.35,33.777-30.879,33.777-49.373
	c0-18.487-11.996-36.023-33.777-49.371c-22.406-13.73-52.279-21.293-84.121-21.293c-11.201,0-30.547,0.1-60.211,9.963
	c-0.033-0.053-3.959-7.262-3.959-7.262C227.457,2.471,253.998,0,268.807,0c33.326,0,64.719,7.99,88.391,22.494
	c24.301,14.891,37.682,34.902,37.682,56.342c0,21.445-13.381,41.451-37.682,56.346C333.525,149.686,302.135,157.676,268.807,157.676
	z"/>
<path fill="#FFFFFF" d="M74.092,20.761l-0.387-0.017c-0.898-0.025-1.801-0.043-2.734-0.043c-31.018,0-57.428,16.33-67.008,38.99
	c-0.133,0.307-0.26,0.615-0.386,0.925c-0.16,0.401-0.317,0.796-0.466,1.203c-0.275,0.728-0.529,1.46-0.767,2.192
	c-0.005,0.016-0.009,0.027-0.013,0.041C0.806,68.777,0,73.652,0,78.588c0,19.57,12.02,36.887,30.345,47.34
	c0.187,0.109,0.373,0.217,0.561,0.322c0.241,0.137,0.483,0.273,0.729,0.404c8.511,4.742,18.055,7.832,27.755,8.918
	c3.738,0.498,7.569,0.77,11.48,0.77c0.934,0,1.836-0.018,2.734-0.045l0.387-0.014c7.008-0.246,17.336-1.391,25.137-4.551
	l-3.447-7.592c-2.535,0.961-7.227,2.809-21.299,3.848c-4.449,0.332-10.275-0.336-10.275-0.336
	c-18.945-1.824-35.387-10.273-45.432-22.211c-4.642-5.711-7.785-11.959-9.346-18.086c-0.687-2.893-1.053-5.867-1.053-8.898
	c0-27.339,28.125-49.58,62.695-49.58c1.621,0,3.24,0.021,4.809,0.063l0.223,0.011l0.219,0.027c1.422,0.187,2.842,0.395,4.223,0.619
	c20.086,2.375,37.602,12.344,46.885,26.676c1.391,1.952,2.754,4.064,4.109,6.359l4.119-9.938c0.117-0.277,0.236-0.561,0.365-0.855
	C122.787,32.711,100.936,21.697,74.092,20.761z"/>
</svg>
